<svg width="21" height="22" viewBox="0 0 21 22" fill="none" xmlns="http://www.w3.org/2000/svg">
<path d="M0.291748 0.791664H3.20841V3.70833H0.291748V0.791664ZM6.12508 6.625H3.20841V3.70833H6.12508V6.625ZM9.04175 9.54166H6.12508V6.625H9.04175V9.54166ZM11.9584 9.54166H9.04175V12.4583H6.12508V15.375H3.20841V18.2917H0.291748V21.2083H3.20841V18.2917H6.12508V15.375H9.04175V12.4583H11.9584V15.375H14.8751V18.2917H17.7917V21.2083H20.7084V18.2917H17.7917V15.375H14.8751V12.4583H11.9584V9.54166ZM14.8751 6.625V9.54166H11.9584V6.625H14.8751ZM17.7917 3.70833V6.625H14.8751V3.70833H17.7917ZM17.7917 3.70833V0.791664H20.7084V3.70833H17.7917Z" fill="black"/>
</svg>
